<svg width="706" height="113" viewBox="0 0 706 113" fill="none" xmlns="http://www.w3.org/2000/svg">
<g clip-path="url(#clip0_320_52)">
<mask id="mask0_320_52" style="mask-type:luminance" maskUnits="userSpaceOnUse" x="0" y="0" width="706" height="113">
<path d="M706 0H0V113H706V0Z" fill="white"/>
</mask>
<g mask="url(#mask0_320_52)">
<path d="M-0.423828 51.0018V17.4017H9.08017V42.7938H27.9922V51.0018H-0.423828ZM39.4503 51.0018V25.4178H48.3783V51.0018H39.4503ZM43.9143 20.2818C42.2823 20.2818 41.0183 19.9138 40.1223 19.1778C39.2263 18.4098 38.7783 17.3378 38.7783 15.9618C38.7783 14.6818 39.2263 13.6418 40.1223 12.8418C41.0503 12.0098 42.3143 11.5938 43.9143 11.5938C45.5143 11.5938 46.7623 11.9778 47.6583 12.7458C48.5863 13.4818 49.0503 14.5538 49.0503 15.9618C49.0503 17.2418 48.5863 18.2817 47.6583 19.0817C46.7623 19.8817 45.5143 20.2818 43.9143 20.2818ZM81.5295 51.5298C79.9615 51.5298 78.5215 51.3538 77.2095 51.0018C75.8975 50.6498 74.7295 50.1698 73.7055 49.5618C72.7135 48.9538 71.8975 48.2977 71.2575 47.5938C70.6495 46.8577 70.2495 46.1378 70.0575 45.4338L72.5055 45.2418L71.8815 50.9538H63.7215V15.4817H72.6975V31.6097L70.1535 31.2738C70.4095 30.4738 70.8575 29.7057 71.4975 28.9697C72.1695 28.2017 73.0015 27.5137 73.9935 26.9057C74.9855 26.2657 76.1215 25.7698 77.4015 25.4178C78.7135 25.0658 80.1055 24.8898 81.5775 24.8898C84.1375 24.8898 86.4095 25.4657 88.3935 26.6177C90.4095 27.7377 92.0095 29.3058 93.1935 31.3218C94.4095 33.3378 95.0175 35.6417 95.0175 38.2337C95.0175 40.8257 94.4255 43.1298 93.2415 45.1458C92.0895 47.1618 90.5055 48.7298 88.4895 49.8498C86.4735 50.9698 84.1535 51.5298 81.5295 51.5298ZM79.2255 44.1378C80.6975 44.1378 81.9455 43.8978 82.9695 43.4178C83.9935 42.9058 84.7935 42.2178 85.3695 41.3538C85.9455 40.4578 86.2335 39.4177 86.2335 38.2337C86.2335 36.9857 85.9455 35.9298 85.3695 35.0658C84.8255 34.1698 84.0255 33.4978 82.9695 33.0498C81.9135 32.5698 80.6655 32.3298 79.2255 32.3298C77.7855 32.3298 76.5375 32.5698 75.4815 33.0498C74.4255 33.4978 73.5935 34.1698 72.9855 35.0658C72.4095 35.9298 72.1215 36.9857 72.1215 38.2337C72.1215 39.4177 72.4095 40.4578 72.9855 41.3538C73.5935 42.2178 74.4255 42.9058 75.4815 43.4178C76.5375 43.8978 77.7855 44.1378 79.2255 44.1378ZM107.081 51.0018V25.4178H115.433L115.913 34.6338L113.417 34.2018C113.929 32.4738 114.729 30.9057 115.817 29.4977C116.937 28.0897 118.265 26.9697 119.801 26.1377C121.337 25.3057 122.953 24.8898 124.649 24.8898C125.641 24.8898 126.585 24.9858 127.481 25.1778C128.377 25.3378 129.177 25.5938 129.881 25.9458L127.433 35.6418C126.857 35.2578 126.057 34.9378 125.033 34.6818C124.041 34.4258 123.033 34.2978 122.009 34.2978C121.017 34.2978 120.137 34.4418 119.369 34.7298C118.633 35.0178 118.009 35.4178 117.497 35.9298C117.017 36.4418 116.649 37.0177 116.393 37.6577C116.169 38.2977 116.057 38.9698 116.057 39.6738V51.0018H107.081ZM150.113 51.4338C147.393 51.4338 145.025 50.8737 143.009 49.7537C140.993 48.6017 139.425 47.0338 138.305 45.0498C137.185 43.0658 136.625 40.7937 136.625 38.2337C136.625 35.6097 137.185 33.3058 138.305 31.3218C139.457 29.3058 141.041 27.7377 143.057 26.6177C145.105 25.4657 147.473 24.8898 150.161 24.8898C151.729 24.8898 153.153 25.0658 154.433 25.4178C155.745 25.7698 156.881 26.2657 157.841 26.9057C158.833 27.5137 159.649 28.1857 160.289 28.9217C160.929 29.6257 161.377 30.3297 161.633 31.0337L159.569 31.2257V25.4178H168.353V51.0018H159.377V44.1378L161.249 44.7138C161.089 45.5458 160.689 46.3618 160.049 47.1618C159.409 47.9618 158.593 48.6818 157.601 49.3218C156.641 49.9618 155.521 50.4737 154.241 50.8577C152.993 51.2417 151.617 51.4338 150.113 51.4338ZM152.561 44.0898C154.033 44.0898 155.281 43.8498 156.305 43.3698C157.361 42.8898 158.177 42.2018 158.753 41.3058C159.329 40.4098 159.617 39.3857 159.617 38.2337C159.617 36.9857 159.329 35.9298 158.753 35.0658C158.177 34.1698 157.361 33.4818 156.305 33.0018C155.281 32.5218 154.033 32.2817 152.561 32.2817C151.089 32.2817 149.825 32.5218 148.769 33.0018C147.713 33.4818 146.897 34.1698 146.321 35.0658C145.745 35.9298 145.457 36.9857 145.457 38.2337C145.457 39.3857 145.745 40.4098 146.321 41.3058C146.897 42.2018 147.713 42.8898 148.769 43.3698C149.825 43.8498 151.089 44.0898 152.561 44.0898ZM183.112 51.0018V25.4178H191.464L191.944 34.6338L189.448 34.2018C189.96 32.4738 190.76 30.9057 191.848 29.4977C192.968 28.0897 194.296 26.9697 195.832 26.1377C197.368 25.3057 198.984 24.8898 200.68 24.8898C201.672 24.8898 202.616 24.9858 203.512 25.1778C204.408 25.3378 205.208 25.5938 205.912 25.9458L203.464 35.6418C202.888 35.2578 202.088 34.9378 201.064 34.6818C200.072 34.4258 199.064 34.2978 198.04 34.2978C197.048 34.2978 196.168 34.4418 195.4 34.7298C194.664 35.0178 194.04 35.4178 193.528 35.9298C193.048 36.4418 192.68 37.0177 192.424 37.6577C192.2 38.2977 192.088 38.9698 192.088 39.6738V51.0018H183.112ZM219.878 62.0418L227.51 47.5938L227.03 51.3857L212.966 25.4178H223.334L229.478 38.0418C229.894 38.8098 230.294 39.6578 230.678 40.5858C231.094 41.5138 231.478 42.5058 231.83 43.5618L229.766 43.8018C230.086 43.0338 230.454 42.1698 230.87 41.2098C231.286 40.2178 231.686 39.2898 232.07 38.4258L238.07 25.4178H248.246L234.47 51.1938L228.902 62.0418H219.878ZM280.592 51.0018V17.4017H288.896L303.104 36.6978H297.008L311.264 17.4017H319.472V51.0018H310.304V41.7378C310.304 38.9858 310.368 36.4578 310.496 34.1538C310.624 31.8178 310.88 29.4658 311.264 27.0978L312.224 30.0257L301.568 43.5138H298.4L287.744 29.9297L288.8 27.0978C289.152 29.4018 289.392 31.7218 289.52 34.0578C289.68 36.3618 289.76 38.9218 289.76 41.7378V51.0018H280.592ZM343.519 51.4338C340.799 51.4338 338.431 50.8737 336.415 49.7537C334.399 48.6017 332.831 47.0338 331.711 45.0498C330.591 43.0658 330.031 40.7937 330.031 38.2337C330.031 35.6097 330.591 33.3058 331.711 31.3218C332.863 29.3058 334.447 27.7377 336.463 26.6177C338.511 25.4657 340.879 24.8898 343.567 24.8898C345.135 24.8898 346.559 25.0658 347.839 25.4178C349.151 25.7698 350.287 26.2657 351.247 26.9057C352.239 27.5137 353.055 28.1857 353.695 28.9217C354.335 29.6257 354.783 30.3297 355.039 31.0337L352.975 31.2257V25.4178H361.759V51.0018H352.783V44.1378L354.655 44.7138C354.495 45.5458 354.095 46.3618 353.455 47.1618C352.815 47.9618 351.999 48.6818 351.007 49.3218C350.047 49.9618 348.927 50.4737 347.647 50.8577C346.399 51.2417 345.023 51.4338 343.519 51.4338ZM345.967 44.0898C347.439 44.0898 348.687 43.8498 349.711 43.3698C350.767 42.8898 351.583 42.2018 352.159 41.3058C352.735 40.4098 353.023 39.3857 353.023 38.2337C353.023 36.9857 352.735 35.9298 352.159 35.0658C351.583 34.1698 350.767 33.4818 349.711 33.0018C348.687 32.5218 347.439 32.2817 345.967 32.2817C344.495 32.2817 343.231 32.5218 342.175 33.0018C341.119 33.4818 340.303 34.1698 339.727 35.0658C339.151 35.9298 338.863 36.9857 338.863 38.2337C338.863 39.3857 339.151 40.4098 339.727 41.3058C340.303 42.2018 341.119 42.8898 342.175 43.3698C343.231 43.8498 344.495 44.0898 345.967 44.0898ZM376.518 51.0018V25.4178H384.87L385.254 31.8498L383.094 32.3778C383.478 31.0338 384.182 29.8018 385.206 28.6818C386.262 27.5298 387.574 26.6178 389.142 25.9458C390.742 25.2418 392.518 24.8898 394.47 24.8898C396.742 24.8898 398.678 25.3538 400.278 26.2818C401.878 27.1778 403.11 28.4417 403.974 30.0737C404.838 31.6737 405.27 33.5298 405.27 35.6418V51.0018H396.342V37.3698C396.342 36.2818 396.118 35.3538 395.67 34.5858C395.254 33.8178 394.662 33.2417 393.894 32.8577C393.126 32.4417 392.198 32.2177 391.11 32.1857C390.214 32.1857 389.414 32.3458 388.71 32.6658C388.006 32.9858 387.414 33.4017 386.934 33.9137C386.486 34.4257 386.134 34.9858 385.878 35.5938C385.622 36.1697 385.494 36.7458 385.494 37.3218V51.0018H381.03C379.654 51.0018 378.582 51.0018 377.814 51.0018C377.078 51.0018 376.646 51.0018 376.518 51.0018ZM429.816 51.4338C427.096 51.4338 424.728 50.8737 422.712 49.7537C420.696 48.6017 419.128 47.0338 418.008 45.0498C416.888 43.0658 416.328 40.7937 416.328 38.2337C416.328 35.6097 416.888 33.3058 418.008 31.3218C419.16 29.3058 420.744 27.7377 422.76 26.6177C424.808 25.4657 427.176 24.8898 429.864 24.8898C431.432 24.8898 432.856 25.0658 434.136 25.4178C435.448 25.7698 436.584 26.2657 437.544 26.9057C438.536 27.5137 439.352 28.1857 439.992 28.9217C440.632 29.6257 441.08 30.3297 441.336 31.0337L439.272 31.2257V25.4178H448.056V51.0018H439.08V44.1378L440.952 44.7138C440.792 45.5458 440.392 46.3618 439.752 47.1618C439.112 47.9618 438.296 48.6818 437.304 49.3218C436.344 49.9618 435.224 50.4737 433.944 50.8577C432.696 51.2417 431.32 51.4338 429.816 51.4338ZM432.264 44.0898C433.736 44.0898 434.984 43.8498 436.008 43.3698C437.064 42.8898 437.88 42.2018 438.456 41.3058C439.032 40.4098 439.32 39.3857 439.32 38.2337C439.32 36.9857 439.032 35.9298 438.456 35.0658C437.88 34.1698 437.064 33.4818 436.008 33.0018C434.984 32.5218 433.736 32.2817 432.264 32.2817C430.792 32.2817 429.528 32.5218 428.472 33.0018C427.416 33.4818 426.6 34.1698 426.024 35.0658C425.448 35.9298 425.16 36.9857 425.16 38.2337C425.16 39.3857 425.448 40.4098 426.024 41.3058C426.6 42.2018 427.416 42.8898 428.472 43.3698C429.528 43.8498 430.792 44.0898 432.264 44.0898ZM476.735 62.0418C473.791 62.0418 471.135 61.7058 468.767 61.0338C466.431 60.3938 464.527 59.6098 463.055 58.6818L465.983 52.3937C466.751 52.7457 467.583 53.1137 468.479 53.4977C469.375 53.8817 470.383 54.1858 471.503 54.4098C472.623 54.6338 473.887 54.7458 475.295 54.7458C476.895 54.7458 478.255 54.4738 479.375 53.9298C480.527 53.3858 481.391 52.5698 481.967 51.4818C482.575 50.3938 482.879 49.0338 482.879 47.4018V44.6178L484.751 44.8577C484.527 45.8817 483.855 46.8258 482.735 47.6898C481.615 48.5538 480.207 49.2417 478.511 49.7537C476.815 50.2337 475.007 50.4738 473.087 50.4738C470.463 50.4738 468.159 49.9618 466.175 48.9378C464.223 47.9138 462.687 46.4738 461.567 44.6178C460.479 42.7298 459.935 40.5378 459.935 38.0418C459.935 35.4178 460.511 33.1297 461.663 31.1777C462.815 29.1937 464.399 27.6578 466.415 26.5698C468.431 25.4498 470.783 24.8898 473.471 24.8898C474.271 24.8898 475.167 24.9698 476.159 25.1298C477.151 25.2578 478.143 25.4977 479.135 25.8497C480.159 26.1697 481.087 26.5698 481.919 27.0498C482.783 27.4978 483.471 28.0258 483.983 28.6338C484.527 29.2418 484.831 29.9298 484.895 30.6978L483.071 31.1297L483.503 25.4178H491.855V47.4018C491.855 49.8658 491.455 51.9938 490.655 53.7858C489.887 55.6098 488.815 57.1298 487.439 58.3458C486.063 59.5938 484.463 60.5217 482.639 61.1297C480.815 61.7377 478.847 62.0418 476.735 62.0418ZM476.111 43.9458C477.583 43.9458 478.831 43.7057 479.855 43.2257C480.911 42.7457 481.711 42.0738 482.255 41.2098C482.831 40.3138 483.119 39.2738 483.119 38.0898C483.119 36.8738 482.831 35.8337 482.255 34.9697C481.711 34.1057 480.911 33.4338 479.855 32.9538C478.831 32.4738 477.583 32.2337 476.111 32.2337C474.607 32.2337 473.295 32.4738 472.175 32.9538C471.055 33.4338 470.191 34.1057 469.583 34.9697C469.007 35.8337 468.719 36.8738 468.719 38.0898C468.719 39.2738 469.007 40.3138 469.583 41.2098C470.191 42.0738 471.055 42.7457 472.175 43.2257C473.295 43.7057 474.607 43.9458 476.111 43.9458ZM519.561 51.4818C516.201 51.4818 513.273 50.9218 510.777 49.8018C508.281 48.6498 506.345 47.0658 504.969 45.0498C503.625 43.0338 502.953 40.7617 502.953 38.2337C502.953 36.2177 503.353 34.3937 504.153 32.7617C504.985 31.1297 506.089 29.7378 507.465 28.5858C508.873 27.4018 510.521 26.4897 512.409 25.8497C514.297 25.2097 516.281 24.8898 518.361 24.8898C520.537 24.8898 522.521 25.2097 524.313 25.8497C526.137 26.4897 527.721 27.4018 529.065 28.5858C530.409 29.7378 531.449 31.1138 532.185 32.7138C532.921 34.3138 533.257 36.0898 533.193 38.0418L533.145 40.2018H508.665L507.561 35.2578H525.993L525.129 36.5537V35.6418C525.065 34.8738 524.729 34.2178 524.121 33.6738C523.513 33.1298 522.729 32.6978 521.769 32.3778C520.809 32.0578 519.737 31.8978 518.553 31.8978C517.145 31.8978 515.881 32.1058 514.761 32.5218C513.673 32.9058 512.793 33.5297 512.121 34.3937C511.481 35.2257 511.161 36.2658 511.161 37.5138C511.161 38.7618 511.545 39.8818 512.313 40.8738C513.081 41.8658 514.185 42.6658 515.625 43.2738C517.097 43.8498 518.857 44.1378 520.905 44.1378C522.761 44.1378 524.265 43.9298 525.417 43.5138C526.601 43.0978 527.545 42.6978 528.249 42.3138L532.137 47.8818C530.889 48.7138 529.577 49.4018 528.201 49.9458C526.857 50.4578 525.465 50.8418 524.025 51.0978C522.617 51.3538 521.129 51.4818 519.561 51.4818ZM545.032 51.0018V25.4178H553.384L553.72 30.8898L551.992 30.0737C552.6 29.3377 553.272 28.6498 554.008 28.0098C554.776 27.3698 555.608 26.8257 556.504 26.3777C557.432 25.8977 558.44 25.5297 559.528 25.2737C560.648 25.0177 561.832 24.8898 563.08 24.8898C564.488 24.8898 565.784 25.0818 566.968 25.4658C568.184 25.8498 569.256 26.5217 570.184 27.4817C571.112 28.4097 571.816 29.7058 572.296 31.3698L570.28 31.1777L570.712 30.5057C571.32 29.7377 572.024 29.0177 572.824 28.3457C573.624 27.6417 574.504 27.0498 575.464 26.5698C576.456 26.0578 577.528 25.6578 578.68 25.3698C579.832 25.0498 581.048 24.8898 582.328 24.8898C584.952 24.8898 587.048 25.3697 588.616 26.3297C590.216 27.2577 591.384 28.5378 592.12 30.1698C592.856 31.7698 593.224 33.5777 593.224 35.5938V51.0018H584.296V36.6497C584.296 35.7857 584.136 35.0337 583.816 34.3937C583.496 33.7217 583.016 33.1937 582.376 32.8097C581.736 32.4257 580.92 32.2337 579.928 32.2337C579.032 32.2337 578.2 32.3778 577.432 32.6658C576.664 32.9218 575.992 33.3058 575.416 33.8178C574.84 34.2978 574.392 34.8577 574.072 35.4977C573.752 36.1377 573.592 36.8418 573.592 37.6098V51.0018H564.664V36.6017C564.664 35.7697 564.472 35.0337 564.088 34.3937C563.736 33.7217 563.192 33.1937 562.456 32.8097C561.752 32.4257 560.792 32.2337 559.576 32.2337C558.744 32.2337 557.976 32.3938 557.272 32.7138C556.6 33.0338 556.008 33.4337 555.496 33.9137C555.016 34.3937 554.632 34.9058 554.344 35.4498C554.088 35.9938 553.96 36.5058 553.96 36.9858V51.0018H545.032ZM620.858 51.4818C617.498 51.4818 614.57 50.9218 612.074 49.8018C609.578 48.6498 607.642 47.0658 606.266 45.0498C604.922 43.0338 604.25 40.7617 604.25 38.2337C604.25 36.2177 604.65 34.3937 605.45 32.7617C606.282 31.1297 607.386 29.7378 608.762 28.5858C610.17 27.4018 611.818 26.4897 613.706 25.8497C615.594 25.2097 617.578 24.8898 619.658 24.8898C621.834 24.8898 623.818 25.2097 625.61 25.8497C627.434 26.4897 629.018 27.4018 630.362 28.5858C631.706 29.7378 632.746 31.1138 633.482 32.7138C634.218 34.3138 634.554 36.0898 634.49 38.0418L634.442 40.2018H609.962L608.858 35.2578H627.29L626.426 36.5537V35.6418C626.362 34.8738 626.026 34.2178 625.418 33.6738C624.81 33.1298 624.026 32.6978 623.066 32.3778C622.106 32.0578 621.034 31.8978 619.85 31.8978C618.442 31.8978 617.178 32.1058 616.058 32.5218C614.97 32.9058 614.09 33.5297 613.418 34.3937C612.778 35.2257 612.458 36.2658 612.458 37.5138C612.458 38.7618 612.842 39.8818 613.61 40.8738C614.378 41.8658 615.482 42.6658 616.922 43.2738C618.394 43.8498 620.154 44.1378 622.202 44.1378C624.058 44.1378 625.562 43.9298 626.714 43.5138C627.898 43.0978 628.842 42.6978 629.546 42.3138L633.434 47.8818C632.186 48.7138 630.874 49.4018 629.498 49.9458C628.154 50.4578 626.762 50.8418 625.322 51.0978C623.914 51.3538 622.426 51.4818 620.858 51.4818ZM646.424 51.0018V25.4178H654.776L655.16 31.8498L653 32.3778C653.384 31.0338 654.088 29.8018 655.112 28.6818C656.168 27.5298 657.48 26.6178 659.048 25.9458C660.648 25.2418 662.424 24.8898 664.376 24.8898C666.648 24.8898 668.584 25.3538 670.184 26.2818C671.784 27.1778 673.016 28.4417 673.88 30.0737C674.744 31.6737 675.176 33.5298 675.176 35.6418V51.0018H666.248V37.3698C666.248 36.2818 666.024 35.3538 665.576 34.5858C665.16 33.8178 664.568 33.2417 663.8 32.8577C663.032 32.4417 662.104 32.2177 661.016 32.1857C660.12 32.1857 659.32 32.3458 658.616 32.6658C657.912 32.9858 657.32 33.4017 656.84 33.9137C656.392 34.4257 656.04 34.9858 655.784 35.5938C655.528 36.1697 655.4 36.7458 655.4 37.3218V51.0018H650.936C649.56 51.0018 648.488 51.0018 647.72 51.0018C646.984 51.0018 646.552 51.0018 646.424 51.0018ZM692.09 51.0018V18.0258H701.018V51.0018H692.09ZM686.042 33.0018V25.4178H707.978V33.0018H686.042Z" fill="#1EA8E7"/>
<path d="M299.736 96.1053C300.456 96.8973 301.392 97.5573 302.544 98.0853C303.72 98.6133 304.992 98.8773 306.36 98.8773C307.752 98.8773 308.94 98.5173 309.924 97.7973C310.932 97.0773 311.436 96.0693 311.436 94.7733C311.436 93.4533 311.004 92.4213 310.14 91.6773C309.3 90.9333 308.268 90.3693 307.044 89.9853C305.844 89.6013 304.632 89.1933 303.408 88.7613C302.208 88.3293 301.176 87.6213 300.312 86.6373C299.472 85.6293 299.052 84.3093 299.052 82.6773C299.052 80.4453 299.772 78.7653 301.212 77.6373C302.676 76.5093 304.392 75.9453 306.36 75.9453C309.072 75.9453 311.316 76.5093 313.092 77.6373L311.652 79.9413C310.284 79.0773 308.508 78.6453 306.324 78.6453C305.172 78.6453 304.152 78.9693 303.264 79.6173C302.376 80.2653 301.932 81.2253 301.932 82.4973C301.932 84.1053 302.76 85.2813 304.416 86.0253C305.136 86.3613 305.928 86.6613 306.792 86.9253C307.68 87.1893 308.556 87.5013 309.42 87.8613C310.308 88.2213 311.112 88.6533 311.832 89.1573C313.488 90.2853 314.316 92.0493 314.316 94.4493C314.316 96.8253 313.548 98.6133 312.012 99.8133C310.5 100.989 308.58 101.577 306.252 101.577C303.156 101.577 300.432 100.473 298.08 98.2653L299.736 96.1053ZM322.479 109.605L320.139 108.813L322.587 101.937L315.567 83.0013H318.519L323.955 98.0493L329.319 83.0013H332.199L322.479 109.605ZM340.249 99.0213C341.305 99.0213 342.193 98.7693 342.913 98.2653C343.633 97.7613 343.993 97.1373 343.993 96.3933C343.993 95.6253 343.789 95.0253 343.381 94.5933C342.973 94.1373 342.529 93.8133 342.049 93.6213C341.593 93.4293 340.933 93.2133 340.069 92.9733C339.205 92.7093 338.545 92.4933 338.089 92.3253C337.633 92.1333 337.093 91.8453 336.469 91.4613C335.293 90.7413 334.705 89.5173 334.705 87.7893C334.705 86.0373 335.293 84.7173 336.469 83.8293C337.645 82.9413 339.025 82.4973 340.609 82.4973C341.593 82.4973 342.577 82.6293 343.561 82.8933C344.569 83.1573 345.325 83.4333 345.829 83.7213L344.821 85.9173C343.669 85.2933 342.265 84.9813 340.609 84.9813C339.769 84.9813 339.025 85.2093 338.377 85.6653C337.753 86.0973 337.441 86.6613 337.441 87.3573C337.441 88.0293 337.633 88.5573 338.017 88.9413C338.401 89.3253 338.797 89.6013 339.205 89.7693C339.613 89.9373 340.237 90.1413 341.077 90.3813C341.917 90.6213 342.589 90.8493 343.093 91.0653C343.621 91.2573 344.209 91.5693 344.857 92.0013C346.105 92.8413 346.729 94.1733 346.729 95.9973C346.729 97.7973 346.105 99.1653 344.857 100.101C343.633 101.037 342.097 101.505 340.249 101.505C337.753 101.505 335.641 100.701 333.913 99.0933L335.389 97.1133C336.709 98.3853 338.329 99.0213 340.249 99.0213ZM349.021 85.3413V83.0013H351.757L352.621 77.6013H354.493V83.0013H358.705V85.3413H354.493V97.0773C354.493 98.3973 355.033 99.0573 356.113 99.0573C356.929 99.0573 357.817 98.7093 358.777 98.0133L359.785 99.8493C358.393 100.953 357.037 101.505 355.717 101.505C354.397 101.505 353.401 101.193 352.729 100.569C352.081 99.9213 351.757 98.7573 351.757 97.0773V85.3413H349.021ZM368.967 101.505C366.807 101.505 365.019 100.749 363.603 99.2373C362.211 97.7253 361.515 95.5053 361.515 92.5773C361.515 89.6493 362.343 87.2373 363.999 85.3413C365.655 83.4453 367.803 82.4973 370.443 82.4973C372.123 82.4973 373.479 83.0133 374.511 84.0453C375.543 85.0533 376.059 86.3253 376.059 87.8613C376.059 89.3733 375.267 90.7653 373.683 92.0373C372.123 93.3093 369.843 93.9453 366.843 93.9453C366.051 93.9453 365.211 93.9093 364.323 93.8373C364.491 95.5413 365.007 96.8373 365.871 97.7253C366.759 98.6133 367.827 99.0573 369.075 99.0573C371.163 99.0573 372.903 98.4093 374.295 97.1133L375.591 98.8773C373.767 100.629 371.559 101.505 368.967 101.505ZM370.335 84.9453C368.679 84.9453 367.299 85.5333 366.195 86.7093C365.115 87.8853 364.479 89.4453 364.287 91.3893C365.079 91.5093 365.955 91.5693 366.915 91.5693C368.979 91.5693 370.563 91.1853 371.667 90.4173C372.771 89.6493 373.323 88.7613 373.323 87.7533C373.323 87.0093 373.047 86.3613 372.495 85.8093C371.967 85.2333 371.247 84.9453 370.335 84.9453ZM388.852 82.4973C391.732 82.4973 393.532 83.9973 394.252 86.9973C394.948 85.5573 395.836 84.4533 396.916 83.6853C398.02 82.8933 399.148 82.4973 400.3 82.4973C402.148 82.4973 403.564 83.1333 404.548 84.4053C405.532 85.6533 406.024 87.5373 406.024 90.0573V101.001H403.288V90.0573C403.288 86.6493 402.148 84.9453 399.868 84.9453C398.548 84.9453 397.348 85.6653 396.268 87.1053C395.212 88.5453 394.648 90.5253 394.576 93.0453V101.001H391.84V90.0573C391.84 86.6493 390.7 84.9453 388.42 84.9453C387.1 84.9453 385.9 85.6653 384.82 87.1053C383.764 88.5453 383.2 90.5253 383.128 93.0453V101.001H380.392V86.6013L380.032 83.0013L382.408 82.8213L383.092 86.4573C383.812 85.1853 384.688 84.2133 385.72 83.5413C386.752 82.8453 387.796 82.4973 388.852 82.4973Z" fill="#1EA8E7"/>
</g>
</g>
<defs>
<clipPath id="clip0_320_52">
<rect width="706" height="113" fill="white"/>
</clipPath>
</defs>
</svg>