<svg width="706" height="113" viewBox="0 0 706 113" fill="none" xmlns="http://www.w3.org/2000/svg">
<g clip-path="url(#clip0_317_125)">
<path d="M-0.424 51V17.4H9.08V42.792H27.992V51H-0.424ZM39.4501 51V25.416H48.3781V51H39.4501ZM43.9141 20.28C42.2821 20.28 41.0181 19.912 40.1221 19.176C39.2261 18.408 38.7781 17.336 38.7781 15.96C38.7781 14.68 39.2261 13.64 40.1221 12.84C41.0501 12.008 42.3141 11.592 43.9141 11.592C45.5141 11.592 46.7621 11.976 47.6581 12.744C48.5861 13.48 49.0501 14.552 49.0501 15.96C49.0501 17.24 48.5861 18.28 47.6581 19.08C46.7621 19.88 45.5141 20.28 43.9141 20.28ZM81.5293 51.528C79.9613 51.528 78.5213 51.352 77.2093 51C75.8973 50.648 74.7293 50.168 73.7053 49.56C72.7133 48.952 71.8973 48.296 71.2573 47.592C70.6493 46.856 70.2493 46.136 70.0573 45.432L72.5053 45.24L71.8813 50.952H63.7213V15.48H72.6973V31.608L70.1533 31.272C70.4093 30.472 70.8573 29.704 71.4973 28.968C72.1693 28.2 73.0013 27.512 73.9933 26.904C74.9853 26.264 76.1213 25.768 77.4013 25.416C78.7133 25.064 80.1053 24.888 81.5773 24.888C84.1373 24.888 86.4093 25.464 88.3933 26.616C90.4093 27.736 92.0093 29.304 93.1933 31.32C94.4093 33.336 95.0173 35.64 95.0173 38.232C95.0173 40.824 94.4253 43.128 93.2413 45.144C92.0893 47.16 90.5053 48.728 88.4893 49.848C86.4733 50.968 84.1533 51.528 81.5293 51.528ZM79.2253 44.136C80.6973 44.136 81.9453 43.896 82.9693 43.416C83.9933 42.904 84.7933 42.216 85.3693 41.352C85.9453 40.456 86.2333 39.416 86.2333 38.232C86.2333 36.984 85.9453 35.928 85.3693 35.064C84.8253 34.168 84.0253 33.496 82.9693 33.048C81.9133 32.568 80.6653 32.328 79.2253 32.328C77.7853 32.328 76.5373 32.568 75.4813 33.048C74.4253 33.496 73.5933 34.168 72.9853 35.064C72.4093 35.928 72.1213 36.984 72.1213 38.232C72.1213 39.416 72.4093 40.456 72.9853 41.352C73.5933 42.216 74.4253 42.904 75.4813 43.416C76.5373 43.896 77.7853 44.136 79.2253 44.136ZM107.081 51V25.416H115.433L115.913 34.632L113.417 34.2C113.929 32.472 114.729 30.904 115.817 29.496C116.937 28.088 118.265 26.968 119.801 26.136C121.337 25.304 122.953 24.888 124.649 24.888C125.641 24.888 126.585 24.984 127.481 25.176C128.377 25.336 129.177 25.592 129.881 25.944L127.433 35.64C126.857 35.256 126.057 34.936 125.033 34.68C124.041 34.424 123.033 34.296 122.009 34.296C121.017 34.296 120.137 34.44 119.369 34.728C118.633 35.016 118.009 35.416 117.497 35.928C117.017 36.44 116.649 37.016 116.393 37.656C116.169 38.296 116.057 38.968 116.057 39.672V51H107.081ZM150.113 51.432C147.393 51.432 145.025 50.872 143.009 49.752C140.993 48.6 139.425 47.032 138.305 45.048C137.185 43.064 136.625 40.792 136.625 38.232C136.625 35.608 137.185 33.304 138.305 31.32C139.457 29.304 141.041 27.736 143.057 26.616C145.105 25.464 147.473 24.888 150.161 24.888C151.729 24.888 153.153 25.064 154.433 25.416C155.745 25.768 156.881 26.264 157.841 26.904C158.833 27.512 159.649 28.184 160.289 28.92C160.929 29.624 161.377 30.328 161.633 31.032L159.569 31.224V25.416H168.353V51H159.377V44.136L161.249 44.712C161.089 45.544 160.689 46.36 160.049 47.16C159.409 47.96 158.593 48.68 157.601 49.32C156.641 49.96 155.521 50.472 154.241 50.856C152.993 51.24 151.617 51.432 150.113 51.432ZM152.561 44.088C154.033 44.088 155.281 43.848 156.305 43.368C157.361 42.888 158.177 42.2 158.753 41.304C159.329 40.408 159.617 39.384 159.617 38.232C159.617 36.984 159.329 35.928 158.753 35.064C158.177 34.168 157.361 33.48 156.305 33C155.281 32.52 154.033 32.28 152.561 32.28C151.089 32.28 149.825 32.52 148.769 33C147.713 33.48 146.897 34.168 146.321 35.064C145.745 35.928 145.457 36.984 145.457 38.232C145.457 39.384 145.745 40.408 146.321 41.304C146.897 42.2 147.713 42.888 148.769 43.368C149.825 43.848 151.089 44.088 152.561 44.088ZM183.112 51V25.416H191.464L191.944 34.632L189.448 34.2C189.96 32.472 190.76 30.904 191.848 29.496C192.968 28.088 194.296 26.968 195.832 26.136C197.368 25.304 198.984 24.888 200.68 24.888C201.672 24.888 202.616 24.984 203.512 25.176C204.408 25.336 205.208 25.592 205.912 25.944L203.464 35.64C202.888 35.256 202.088 34.936 201.064 34.68C200.072 34.424 199.064 34.296 198.04 34.296C197.048 34.296 196.168 34.44 195.4 34.728C194.664 35.016 194.04 35.416 193.528 35.928C193.048 36.44 192.68 37.016 192.424 37.656C192.2 38.296 192.088 38.968 192.088 39.672V51H183.112ZM219.878 62.04L227.51 47.592L227.03 51.384L212.966 25.416H223.334L229.478 38.04C229.894 38.808 230.294 39.656 230.678 40.584C231.094 41.512 231.478 42.504 231.83 43.56L229.766 43.8C230.086 43.032 230.454 42.168 230.87 41.208C231.286 40.216 231.686 39.288 232.07 38.424L238.07 25.416H248.246L234.47 51.192L228.902 62.04H219.878ZM280.592 51V17.4H288.896L303.104 36.696H297.008L311.264 17.4H319.472V51H310.304V41.736C310.304 38.984 310.368 36.456 310.496 34.152C310.624 31.816 310.88 29.464 311.264 27.096L312.224 30.024L301.568 43.512H298.4L287.744 29.928L288.8 27.096C289.152 29.4 289.392 31.72 289.52 34.056C289.68 36.36 289.76 38.92 289.76 41.736V51H280.592ZM343.519 51.432C340.799 51.432 338.431 50.872 336.415 49.752C334.399 48.6 332.831 47.032 331.711 45.048C330.591 43.064 330.031 40.792 330.031 38.232C330.031 35.608 330.591 33.304 331.711 31.32C332.863 29.304 334.447 27.736 336.463 26.616C338.511 25.464 340.879 24.888 343.567 24.888C345.135 24.888 346.559 25.064 347.839 25.416C349.151 25.768 350.287 26.264 351.247 26.904C352.239 27.512 353.055 28.184 353.695 28.92C354.335 29.624 354.783 30.328 355.039 31.032L352.975 31.224V25.416H361.759V51H352.783V44.136L354.655 44.712C354.495 45.544 354.095 46.36 353.455 47.16C352.815 47.96 351.999 48.68 351.007 49.32C350.047 49.96 348.927 50.472 347.647 50.856C346.399 51.24 345.023 51.432 343.519 51.432ZM345.967 44.088C347.439 44.088 348.687 43.848 349.711 43.368C350.767 42.888 351.583 42.2 352.159 41.304C352.735 40.408 353.023 39.384 353.023 38.232C353.023 36.984 352.735 35.928 352.159 35.064C351.583 34.168 350.767 33.48 349.711 33C348.687 32.52 347.439 32.28 345.967 32.28C344.495 32.28 343.231 32.52 342.175 33C341.119 33.48 340.303 34.168 339.727 35.064C339.151 35.928 338.863 36.984 338.863 38.232C338.863 39.384 339.151 40.408 339.727 41.304C340.303 42.2 341.119 42.888 342.175 43.368C343.231 43.848 344.495 44.088 345.967 44.088ZM376.518 51V25.416H384.87L385.254 31.848L383.094 32.376C383.478 31.032 384.182 29.8 385.206 28.68C386.262 27.528 387.574 26.616 389.142 25.944C390.742 25.24 392.518 24.888 394.47 24.888C396.742 24.888 398.678 25.352 400.278 26.28C401.878 27.176 403.11 28.44 403.974 30.072C404.838 31.672 405.27 33.528 405.27 35.64V51H396.342V37.368C396.342 36.28 396.118 35.352 395.67 34.584C395.254 33.816 394.662 33.24 393.894 32.856C393.126 32.44 392.198 32.216 391.11 32.184C390.214 32.184 389.414 32.344 388.71 32.664C388.006 32.984 387.414 33.4 386.934 33.912C386.486 34.424 386.134 34.984 385.878 35.592C385.622 36.168 385.494 36.744 385.494 37.32V51H381.03C379.654 51 378.582 51 377.814 51C377.078 51 376.646 51 376.518 51ZM429.816 51.432C427.096 51.432 424.728 50.872 422.712 49.752C420.696 48.6 419.128 47.032 418.008 45.048C416.888 43.064 416.328 40.792 416.328 38.232C416.328 35.608 416.888 33.304 418.008 31.32C419.16 29.304 420.744 27.736 422.76 26.616C424.808 25.464 427.176 24.888 429.864 24.888C431.432 24.888 432.856 25.064 434.136 25.416C435.448 25.768 436.584 26.264 437.544 26.904C438.536 27.512 439.352 28.184 439.992 28.92C440.632 29.624 441.08 30.328 441.336 31.032L439.272 31.224V25.416H448.056V51H439.08V44.136L440.952 44.712C440.792 45.544 440.392 46.36 439.752 47.16C439.112 47.96 438.296 48.68 437.304 49.32C436.344 49.96 435.224 50.472 433.944 50.856C432.696 51.24 431.32 51.432 429.816 51.432ZM432.264 44.088C433.736 44.088 434.984 43.848 436.008 43.368C437.064 42.888 437.88 42.2 438.456 41.304C439.032 40.408 439.32 39.384 439.32 38.232C439.32 36.984 439.032 35.928 438.456 35.064C437.88 34.168 437.064 33.48 436.008 33C434.984 32.52 433.736 32.28 432.264 32.28C430.792 32.28 429.528 32.52 428.472 33C427.416 33.48 426.6 34.168 426.024 35.064C425.448 35.928 425.16 36.984 425.16 38.232C425.16 39.384 425.448 40.408 426.024 41.304C426.6 42.2 427.416 42.888 428.472 43.368C429.528 43.848 430.792 44.088 432.264 44.088ZM476.735 62.04C473.791 62.04 471.135 61.704 468.767 61.032C466.431 60.392 464.527 59.608 463.055 58.68L465.983 52.392C466.751 52.744 467.583 53.112 468.479 53.496C469.375 53.88 470.383 54.184 471.503 54.408C472.623 54.632 473.887 54.744 475.295 54.744C476.895 54.744 478.255 54.472 479.375 53.928C480.527 53.384 481.391 52.568 481.967 51.48C482.575 50.392 482.879 49.032 482.879 47.4V44.616L484.751 44.856C484.527 45.88 483.855 46.824 482.735 47.688C481.615 48.552 480.207 49.24 478.511 49.752C476.815 50.232 475.007 50.472 473.087 50.472C470.463 50.472 468.159 49.96 466.175 48.936C464.223 47.912 462.687 46.472 461.567 44.616C460.479 42.728 459.935 40.536 459.935 38.04C459.935 35.416 460.511 33.128 461.663 31.176C462.815 29.192 464.399 27.656 466.415 26.568C468.431 25.448 470.783 24.888 473.471 24.888C474.271 24.888 475.167 24.968 476.159 25.128C477.151 25.256 478.143 25.496 479.135 25.848C480.159 26.168 481.087 26.568 481.919 27.048C482.783 27.496 483.471 28.024 483.983 28.632C484.527 29.24 484.831 29.928 484.895 30.696L483.071 31.128L483.503 25.416H491.855V47.4C491.855 49.864 491.455 51.992 490.655 53.784C489.887 55.608 488.815 57.128 487.439 58.344C486.063 59.592 484.463 60.52 482.639 61.128C480.815 61.736 478.847 62.04 476.735 62.04ZM476.111 43.944C477.583 43.944 478.831 43.704 479.855 43.224C480.911 42.744 481.711 42.072 482.255 41.208C482.831 40.312 483.119 39.272 483.119 38.088C483.119 36.872 482.831 35.832 482.255 34.968C481.711 34.104 480.911 33.432 479.855 32.952C478.831 32.472 477.583 32.232 476.111 32.232C474.607 32.232 473.295 32.472 472.175 32.952C471.055 33.432 470.191 34.104 469.583 34.968C469.007 35.832 468.719 36.872 468.719 38.088C468.719 39.272 469.007 40.312 469.583 41.208C470.191 42.072 471.055 42.744 472.175 43.224C473.295 43.704 474.607 43.944 476.111 43.944ZM519.561 51.48C516.201 51.48 513.273 50.92 510.777 49.8C508.281 48.648 506.345 47.064 504.969 45.048C503.625 43.032 502.953 40.76 502.953 38.232C502.953 36.216 503.353 34.392 504.153 32.76C504.985 31.128 506.089 29.736 507.465 28.584C508.873 27.4 510.521 26.488 512.409 25.848C514.297 25.208 516.281 24.888 518.361 24.888C520.537 24.888 522.521 25.208 524.313 25.848C526.137 26.488 527.721 27.4 529.065 28.584C530.409 29.736 531.449 31.112 532.185 32.712C532.921 34.312 533.257 36.088 533.193 38.04L533.145 40.2H508.665L507.561 35.256H525.993L525.129 36.552V35.64C525.065 34.872 524.729 34.216 524.121 33.672C523.513 33.128 522.729 32.696 521.769 32.376C520.809 32.056 519.737 31.896 518.553 31.896C517.145 31.896 515.881 32.104 514.761 32.52C513.673 32.904 512.793 33.528 512.121 34.392C511.481 35.224 511.161 36.264 511.161 37.512C511.161 38.76 511.545 39.88 512.313 40.872C513.081 41.864 514.185 42.664 515.625 43.272C517.097 43.848 518.857 44.136 520.905 44.136C522.761 44.136 524.265 43.928 525.417 43.512C526.601 43.096 527.545 42.696 528.249 42.312L532.137 47.88C530.889 48.712 529.577 49.4 528.201 49.944C526.857 50.456 525.465 50.84 524.025 51.096C522.617 51.352 521.129 51.48 519.561 51.48ZM545.032 51V25.416H553.384L553.72 30.888L551.992 30.072C552.6 29.336 553.272 28.648 554.008 28.008C554.776 27.368 555.608 26.824 556.504 26.376C557.432 25.896 558.44 25.528 559.528 25.272C560.648 25.016 561.832 24.888 563.08 24.888C564.488 24.888 565.784 25.08 566.968 25.464C568.184 25.848 569.256 26.52 570.184 27.48C571.112 28.408 571.816 29.704 572.296 31.368L570.28 31.176L570.712 30.504C571.32 29.736 572.024 29.016 572.824 28.344C573.624 27.64 574.504 27.048 575.464 26.568C576.456 26.056 577.528 25.656 578.68 25.368C579.832 25.048 581.048 24.888 582.328 24.888C584.952 24.888 587.048 25.368 588.616 26.328C590.216 27.256 591.384 28.536 592.12 30.168C592.856 31.768 593.224 33.576 593.224 35.592V51H584.296V36.648C584.296 35.784 584.136 35.032 583.816 34.392C583.496 33.72 583.016 33.192 582.376 32.808C581.736 32.424 580.92 32.232 579.928 32.232C579.032 32.232 578.2 32.376 577.432 32.664C576.664 32.92 575.992 33.304 575.416 33.816C574.84 34.296 574.392 34.856 574.072 35.496C573.752 36.136 573.592 36.84 573.592 37.608V51H564.664V36.6C564.664 35.768 564.472 35.032 564.088 34.392C563.736 33.72 563.192 33.192 562.456 32.808C561.752 32.424 560.792 32.232 559.576 32.232C558.744 32.232 557.976 32.392 557.272 32.712C556.6 33.032 556.008 33.432 555.496 33.912C555.016 34.392 554.632 34.904 554.344 35.448C554.088 35.992 553.96 36.504 553.96 36.984V51H545.032ZM620.858 51.48C617.498 51.48 614.57 50.92 612.074 49.8C609.578 48.648 607.642 47.064 606.266 45.048C604.922 43.032 604.25 40.76 604.25 38.232C604.25 36.216 604.65 34.392 605.45 32.76C606.282 31.128 607.386 29.736 608.762 28.584C610.17 27.4 611.818 26.488 613.706 25.848C615.594 25.208 617.578 24.888 619.658 24.888C621.834 24.888 623.818 25.208 625.61 25.848C627.434 26.488 629.018 27.4 630.362 28.584C631.706 29.736 632.746 31.112 633.482 32.712C634.218 34.312 634.554 36.088 634.49 38.04L634.442 40.2H609.962L608.858 35.256H627.29L626.426 36.552V35.64C626.362 34.872 626.026 34.216 625.418 33.672C624.81 33.128 624.026 32.696 623.066 32.376C622.106 32.056 621.034 31.896 619.85 31.896C618.442 31.896 617.178 32.104 616.058 32.52C614.97 32.904 614.09 33.528 613.418 34.392C612.778 35.224 612.458 36.264 612.458 37.512C612.458 38.76 612.842 39.88 613.61 40.872C614.378 41.864 615.482 42.664 616.922 43.272C618.394 43.848 620.154 44.136 622.202 44.136C624.058 44.136 625.562 43.928 626.714 43.512C627.898 43.096 628.842 42.696 629.546 42.312L633.434 47.88C632.186 48.712 630.874 49.4 629.498 49.944C628.154 50.456 626.762 50.84 625.322 51.096C623.914 51.352 622.426 51.48 620.858 51.48ZM646.424 51V25.416H654.776L655.16 31.848L653 32.376C653.384 31.032 654.088 29.8 655.112 28.68C656.168 27.528 657.48 26.616 659.048 25.944C660.648 25.24 662.424 24.888 664.376 24.888C666.648 24.888 668.584 25.352 670.184 26.28C671.784 27.176 673.016 28.44 673.88 30.072C674.744 31.672 675.176 33.528 675.176 35.64V51H666.248V37.368C666.248 36.28 666.024 35.352 665.576 34.584C665.16 33.816 664.568 33.24 663.8 32.856C663.032 32.44 662.104 32.216 661.016 32.184C660.12 32.184 659.32 32.344 658.616 32.664C657.912 32.984 657.32 33.4 656.84 33.912C656.392 34.424 656.04 34.984 655.784 35.592C655.528 36.168 655.4 36.744 655.4 37.32V51H650.936C649.56 51 648.488 51 647.72 51C646.984 51 646.552 51 646.424 51ZM692.09 51V18.024H701.018V51H692.09ZM686.042 33V25.416H707.978V33H686.042Z" fill="white"/>
<path d="M299.736 96.104C300.456 96.896 301.392 97.556 302.544 98.084C303.72 98.612 304.992 98.876 306.36 98.876C307.752 98.876 308.94 98.516 309.924 97.796C310.932 97.076 311.436 96.068 311.436 94.772C311.436 93.452 311.004 92.42 310.14 91.676C309.3 90.932 308.268 90.368 307.044 89.984C305.844 89.6 304.632 89.192 303.408 88.76C302.208 88.328 301.176 87.62 300.312 86.636C299.472 85.628 299.052 84.308 299.052 82.676C299.052 80.444 299.772 78.764 301.212 77.636C302.676 76.508 304.392 75.944 306.36 75.944C309.072 75.944 311.316 76.508 313.092 77.636L311.652 79.94C310.284 79.076 308.508 78.644 306.324 78.644C305.172 78.644 304.152 78.968 303.264 79.616C302.376 80.264 301.932 81.224 301.932 82.496C301.932 84.104 302.76 85.28 304.416 86.024C305.136 86.36 305.928 86.66 306.792 86.924C307.68 87.188 308.556 87.5 309.42 87.86C310.308 88.22 311.112 88.652 311.832 89.156C313.488 90.284 314.316 92.048 314.316 94.448C314.316 96.824 313.548 98.612 312.012 99.812C310.5 100.988 308.58 101.576 306.252 101.576C303.156 101.576 300.432 100.472 298.08 98.264L299.736 96.104ZM322.479 109.604L320.139 108.812L322.587 101.936L315.567 83H318.519L323.955 98.048L329.319 83H332.199L322.479 109.604ZM340.249 99.02C341.305 99.02 342.193 98.768 342.913 98.264C343.633 97.76 343.993 97.136 343.993 96.392C343.993 95.624 343.789 95.024 343.381 94.592C342.973 94.136 342.529 93.812 342.049 93.62C341.593 93.428 340.933 93.212 340.069 92.972C339.205 92.708 338.545 92.492 338.089 92.324C337.633 92.132 337.093 91.844 336.469 91.46C335.293 90.74 334.705 89.516 334.705 87.788C334.705 86.036 335.293 84.716 336.469 83.828C337.645 82.94 339.025 82.496 340.609 82.496C341.593 82.496 342.577 82.628 343.561 82.892C344.569 83.156 345.325 83.432 345.829 83.72L344.821 85.916C343.669 85.292 342.265 84.98 340.609 84.98C339.769 84.98 339.025 85.208 338.377 85.664C337.753 86.096 337.441 86.66 337.441 87.356C337.441 88.028 337.633 88.556 338.017 88.94C338.401 89.324 338.797 89.6 339.205 89.768C339.613 89.936 340.237 90.14 341.077 90.38C341.917 90.62 342.589 90.848 343.093 91.064C343.621 91.256 344.209 91.568 344.857 92C346.105 92.84 346.729 94.172 346.729 95.996C346.729 97.796 346.105 99.164 344.857 100.1C343.633 101.036 342.097 101.504 340.249 101.504C337.753 101.504 335.641 100.7 333.913 99.092L335.389 97.112C336.709 98.384 338.329 99.02 340.249 99.02ZM349.021 85.34V83H351.757L352.621 77.6H354.493V83H358.705V85.34H354.493V97.076C354.493 98.396 355.033 99.056 356.113 99.056C356.929 99.056 357.817 98.708 358.777 98.012L359.785 99.848C358.393 100.952 357.037 101.504 355.717 101.504C354.397 101.504 353.401 101.192 352.729 100.568C352.081 99.92 351.757 98.756 351.757 97.076V85.34H349.021ZM368.967 101.504C366.807 101.504 365.019 100.748 363.603 99.236C362.211 97.724 361.515 95.504 361.515 92.576C361.515 89.648 362.343 87.236 363.999 85.34C365.655 83.444 367.803 82.496 370.443 82.496C372.123 82.496 373.479 83.012 374.511 84.044C375.543 85.052 376.059 86.324 376.059 87.86C376.059 89.372 375.267 90.764 373.683 92.036C372.123 93.308 369.843 93.944 366.843 93.944C366.051 93.944 365.211 93.908 364.323 93.836C364.491 95.54 365.007 96.836 365.871 97.724C366.759 98.612 367.827 99.056 369.075 99.056C371.163 99.056 372.903 98.408 374.295 97.112L375.591 98.876C373.767 100.628 371.559 101.504 368.967 101.504ZM370.335 84.944C368.679 84.944 367.299 85.532 366.195 86.708C365.115 87.884 364.479 89.444 364.287 91.388C365.079 91.508 365.955 91.568 366.915 91.568C368.979 91.568 370.563 91.184 371.667 90.416C372.771 89.648 373.323 88.76 373.323 87.752C373.323 87.008 373.047 86.36 372.495 85.808C371.967 85.232 371.247 84.944 370.335 84.944ZM388.852 82.496C391.732 82.496 393.532 83.996 394.252 86.996C394.948 85.556 395.836 84.452 396.916 83.684C398.02 82.892 399.148 82.496 400.3 82.496C402.148 82.496 403.564 83.132 404.548 84.404C405.532 85.652 406.024 87.536 406.024 90.056V101H403.288V90.056C403.288 86.648 402.148 84.944 399.868 84.944C398.548 84.944 397.348 85.664 396.268 87.104C395.212 88.544 394.648 90.524 394.576 93.044V101H391.84V90.056C391.84 86.648 390.7 84.944 388.42 84.944C387.1 84.944 385.9 85.664 384.82 87.104C383.764 88.544 383.2 90.524 383.128 93.044V101H380.392V86.6L380.032 83L382.408 82.82L383.092 86.456C383.812 85.184 384.688 84.212 385.72 83.54C386.752 82.844 387.796 82.496 388.852 82.496Z" fill="white"/>
</g>
<defs>
<clipPath id="clip0_317_125">
<rect width="706" height="113" fill="white"/>
</clipPath>
</defs>
</svg>