<svg width="17" height="8" viewBox="0 0 17 8" fill="none" xmlns="http://www.w3.org/2000/svg">
<path d="M0.822 6V1.8H2.01V4.974H4.374V6H0.822ZM5.64427 6V1.8H6.68227L8.45827 4.212H7.69627L9.47827 1.8H10.5043V6H9.35827V4.842C9.35827 4.498 9.36627 4.182 9.38227 3.894C9.39827 3.602 9.43027 3.308 9.47827 3.012L9.59827 3.378L8.26627 5.064H7.87027L6.53827 3.366L6.67027 3.012C6.71427 3.3 6.74427 3.59 6.76027 3.882C6.78027 4.17 6.79027 4.49 6.79027 4.842V6H5.64427ZM13.9122 6.06C13.5722 6.06 13.2642 6.028 12.9882 5.964C12.7162 5.9 12.4722 5.814 12.2562 5.706C12.0402 5.594 11.8442 5.47 11.6682 5.334L12.2322 4.452C12.5362 4.684 12.8402 4.846 13.1442 4.938C13.4522 5.03 13.7362 5.076 13.9962 5.076C14.0922 5.076 14.1902 5.068 14.2902 5.052C14.3902 5.036 14.4762 5.006 14.5482 4.962C14.6202 4.914 14.6562 4.846 14.6562 4.758C14.6562 4.702 14.6382 4.656 14.6022 4.62C14.5702 4.58 14.5222 4.548 14.4582 4.524C14.3942 4.496 14.3182 4.474 14.2302 4.458C14.1462 4.442 14.0522 4.428 13.9482 4.416C13.8442 4.404 13.7342 4.39 13.6182 4.374C13.3542 4.342 13.1142 4.292 12.8982 4.224C12.6862 4.152 12.5062 4.062 12.3582 3.954C12.2102 3.846 12.0962 3.718 12.0162 3.57C11.9402 3.422 11.9022 3.252 11.9022 3.06C11.9022 2.848 11.9542 2.656 12.0582 2.484C12.1622 2.312 12.3042 2.168 12.4842 2.052C12.6682 1.932 12.8802 1.842 13.1202 1.782C13.3602 1.722 13.6142 1.692 13.8822 1.692C14.1862 1.692 14.4542 1.72 14.6862 1.776C14.9222 1.828 15.1262 1.9 15.2982 1.992C15.4702 2.084 15.6142 2.184 15.7302 2.292L15.1422 3.06C15.0262 2.976 14.8982 2.908 14.7582 2.856C14.6182 2.8 14.4702 2.758 14.3142 2.73C14.1582 2.698 14.0102 2.682 13.8702 2.682C13.7262 2.682 13.6002 2.692 13.4922 2.712C13.3842 2.732 13.2982 2.764 13.2342 2.808C13.1702 2.852 13.1382 2.908 13.1382 2.976C13.1382 3.048 13.1702 3.104 13.2342 3.144C13.2982 3.184 13.3802 3.218 13.4802 3.246C13.5802 3.27 13.6822 3.29 13.7862 3.306C13.8902 3.318 13.9882 3.328 14.0802 3.336C14.3122 3.364 14.5362 3.402 14.7522 3.45C14.9682 3.498 15.1602 3.568 15.3282 3.66C15.5002 3.752 15.6342 3.878 15.7302 4.038C15.8302 4.194 15.8802 4.396 15.8802 4.644C15.8802 4.948 15.7942 5.206 15.6222 5.418C15.4542 5.626 15.2182 5.786 14.9142 5.898C14.6142 6.006 14.2802 6.06 13.9122 6.06Z" fill="white"/>
</svg>